<svg xmlns="http://www.w3.org/2000/svg" width="15" height="16" viewBox="0 0 12 13"><path fill="#909ca9" fill-rule="evenodd" d="M5.454 9.008a.607.607 0 0 1 .424-.164c.17 0 .315.053.436.161.12.107.18.26.18.456a.615.615 0 0 1-.616.613.626.626 0 0 1-.42-.156c-.121-.105-.182-.257-.182-.457 0-.193.06-.344.178-.453zM5.276 3.91c0-.252.057-.442.173-.571a.57.57 0 0 1 .443-.194c.178 0 .324.066.435.198.111.132.167.322.167.567v3.598c0 .249-.056.436-.167.562a.553.553 0 0 1-.435.19.576.576 0 0 1-.443-.19c-.116-.126-.173-.301-.173-.525V3.91zm-3.56 7.04a5.737 5.737 0 0 0 8.294 0 6.111 6.111 0 0 0 1.72-4.28 6.11 6.11 0 0 0-1.719-4.28 5.74 5.74 0 0 0-8.297.001c-2.286 2.36-2.285 6.2.002 8.56z"/></svg>
