<svg xmlns="http://www.w3.org/2000/svg" width="15" height="20" viewBox="0 0 15 20">
    <g fill="#D0001D" fill-rule="evenodd">
        <path d="M14.598 11.655a1.357 1.357 0 0 0-1.936 0l-4.88 4.92-4.881-4.92a1.357 1.357 0 0 0-1.935 0 1.385 1.385 0 0 0 0 1.95l5.848 5.896c.697.702 1.313.627 1.936 0l5.848-5.895a1.383 1.383 0 0 0 0-1.951"/>
        <path d="M9.448 1.784v14.223c0 .674-.744 1.217-1.666 1.217-.923 0-1.666-.543-1.666-1.217V1.784c0-.675.743-1.217 1.666-1.217.922 0 1.666.542 1.666 1.217"/>
    </g>
</svg>
