<svg width="82" height="60" viewBox="0 0 82 60" fill="none" xmlns="http://www.w3.org/2000/svg" style="&#10;    color: #0398C5;&#10;">
    <g clip-path="">
        <path d="M38.2006 20.0455H44.791C45.1902 20.0467 45.5791 19.9202 45.9 19.6848C46.2208 19.4494 46.4566 19.1177 46.5722 18.7389C48.0346 14.285 52.5355 9.87795 59.0005 9.8399C65.0346 9.78869 69.9059 13.8109 71.5011 18.7301C71.6167 19.1112 71.8531 19.4451 72.1753 19.6823C72.4975 19.9196 72.8883 20.0474 73.2896 20.0469H80.1855C80.4034 20.0469 80.6185 19.9993 80.8157 19.9076C81.0129 19.8159 81.1873 19.6823 81.3266 19.5163C81.4658 19.3503 81.5666 19.1559 81.6216 18.9469C81.6766 18.738 81.6846 18.5196 81.645 18.3072C79.5008 7.60858 69.7893 -0.0349955 59.0403 0.000120499C45.3592 0.221058 37.7903 10.3169 36.4194 18.297C36.3648 18.9891 36.9713 20.0455 38.2006 20.0455Z" fill="currentColor"/>
        <path d="M80.1881 23.3099L66.8611 23.2835C66.1794 23.2787 65.5119 23.4756 64.9438 23.8492C64.3757 24.2227 63.9329 24.7558 63.6721 25.3802C62.6391 27.9408 64.4631 30.355 66.9113 30.355C67.1774 30.3552 67.4371 30.4358 67.6558 30.5861C67.8745 30.7364 68.0419 30.9493 68.1355 31.1963C68.2291 31.4433 68.2446 31.7127 68.1798 31.9686C68.1151 32.2245 67.9732 32.4548 67.7731 32.6288C66.0041 34.1763 63.8483 35.2242 61.5311 35.6628C59.2138 36.1015 56.8203 35.9147 54.6008 35.1222C52.3813 34.3296 50.4173 32.9603 48.9142 31.1574C47.4112 29.3546 46.4243 27.1845 46.0567 24.874C45.9416 24.0473 45.3513 23.2645 44.3464 23.2791H37.6453C37.2462 23.281 36.8609 23.4236 36.5583 23.6816C36.2557 23.9395 36.0557 24.2958 35.9939 24.6867C35.5509 27.7975 33.9895 30.6448 31.5971 32.7047C29.2047 34.7645 26.1423 35.8982 22.9738 35.8969C19.8053 35.8957 16.7439 34.7596 14.3531 32.6979C11.9623 30.6362 10.4032 27.7876 9.96267 24.6765C9.90925 24.2917 9.7173 23.939 9.42222 23.6836C9.12714 23.4281 8.74884 23.2871 8.35711 23.2864H1.82568C1.58155 23.2866 1.34014 23.3373 1.11689 23.4352C0.893642 23.5332 0.693463 23.6762 0.529155 23.8553C0.364847 24.0343 0.240025 24.2453 0.162673 24.4749C0.0853197 24.7045 0.0571377 24.9476 0.0799285 25.1886C1.22212 36.7051 11.0517 45.7738 22.9665 45.7738C26.1981 45.7806 29.3949 45.1136 32.3496 43.8159C35.3043 42.5182 37.9507 40.619 40.117 38.2415C40.2329 38.1115 40.3753 38.0073 40.5348 37.936C40.6943 37.8646 40.8673 37.8276 41.0423 37.8274C41.2169 37.8288 41.3892 37.8663 41.5483 37.9376C41.7074 38.0089 41.8497 38.1124 41.9661 38.2415C45.6996 42.2769 51.4105 45.6831 59.0532 45.7138C71.0329 45.7621 80.8935 36.6188 81.9943 25.0832C82.0814 24.1322 81.1488 23.3099 80.1881 23.3099Z" fill="currentColor"/>
        <path d="M2.03101 59.8348C1.94542 59.6256 1.84507 59.3754 1.73587 59.0856L1.38465 58.1756C1.26266 57.8595 1.14264 57.5376 1.02458 57.2099C0.906527 56.8821 0.798309 56.5768 0.699929 56.2939C0.599582 56.0115 0.51104 55.7599 0.434304 55.5419C0.357568 55.3238 0.295589 55.1614 0.270502 55.0575C0.20262 54.8366 0.140641 54.6391 0.0845643 54.4723C0.0343829 54.331 0.00602445 54.183 0.000449597 54.0333C-0.00249742 53.9628 0.00906734 53.8925 0.0344385 53.8266C0.0598098 53.7607 0.0984556 53.7006 0.148019 53.65C0.205143 53.5987 0.272064 53.5594 0.344815 53.5342C0.417566 53.5091 0.494666 53.4987 0.571544 53.5037C0.690636 53.4999 0.809356 53.5187 0.921284 53.5593C1.01179 53.5963 1.06935 53.6212 1.09394 53.6339C1.13674 53.8065 1.19429 54.0128 1.26512 54.2528C1.33595 54.4928 1.41269 54.7547 1.50861 55.0371C1.60453 55.3194 1.69307 55.6223 1.79194 55.9252C1.89082 56.2281 1.99264 56.5397 2.09446 56.8441C2.19629 57.1484 2.29663 57.444 2.3896 57.7307C2.48257 58.0175 2.57701 58.278 2.66408 58.5121C2.77623 58.1414 2.89577 57.7347 3.02268 57.2918C3.14959 56.8489 3.27354 56.4154 3.39455 55.991C3.51261 55.5726 3.61836 55.1907 3.71183 54.8454C3.80529 54.5001 3.87366 54.2416 3.91695 54.0699C3.95495 53.9166 4.02875 53.7742 4.1324 53.6544C4.19355 53.5969 4.26641 53.553 4.34608 53.5257C4.42575 53.4985 4.51039 53.4885 4.59429 53.4963C4.72387 53.4946 4.85289 53.5134 4.9765 53.5519C5.05027 53.5731 5.1219 53.601 5.19047 53.6353C5.26426 53.9563 5.35132 54.3152 5.45167 54.7122C5.55202 55.1092 5.65778 55.5219 5.76895 55.9501C5.88012 56.3773 5.9962 56.8099 6.11721 57.2479C6.23822 57.6859 6.35775 58.1014 6.4758 58.4945C6.61354 58.1043 6.75028 57.7025 6.88605 57.2889C7.02181 56.8753 7.15069 56.4768 7.27268 56.0935C7.39369 55.7043 7.50584 55.3399 7.60766 54.9976C7.70949 54.6552 7.7995 54.3552 7.87476 54.0977C7.91448 53.9251 8.00126 53.7667 8.12563 53.6397C8.25354 53.5356 8.41644 53.4833 8.58162 53.4934C8.72888 53.4882 8.87548 53.5152 9.01105 53.5724C9.082 53.6029 9.15056 53.6386 9.21617 53.6792C9.10402 54.085 8.96432 54.5391 8.79707 55.0414C8.62983 55.5438 8.45225 56.0681 8.26435 56.6144C8.07448 57.1606 7.87772 57.7088 7.67407 58.259C7.47042 58.8091 7.26383 59.3344 7.05428 59.8348H5.80584C5.76895 59.7294 5.71877 59.5802 5.65827 59.3871C5.59776 59.1939 5.52841 58.973 5.45757 58.7257C5.38674 58.4784 5.31 58.2136 5.22441 57.9268C5.13882 57.64 5.05766 57.3562 4.98092 57.0635C4.90419 56.7709 4.83335 56.4871 4.75662 56.2091C4.67988 55.9311 4.62233 55.6765 4.56625 55.4424C4.51018 55.6706 4.44475 55.9232 4.36999 56.2003C4.2962 56.4783 4.22242 56.7592 4.13683 57.046C4.05124 57.3328 3.9745 57.6166 3.89038 57.9005C3.80627 58.1843 3.72658 58.4492 3.64837 58.6994C3.57016 58.9496 3.5008 59.172 3.43439 59.3695C3.36799 59.567 3.31339 59.7236 3.27059 59.8406L2.03101 59.8348Z" fill="currentColor"/>
        <path d="M11.75 59.8348C11.9045 59.4222 12.0786 58.9774 12.2724 58.5004C12.4642 58.022 12.6664 57.5333 12.8774 57.0299C13.0885 56.5266 13.3083 56.0189 13.5341 55.5009C13.7599 54.983 13.9872 54.4767 14.21 53.9865C14.288 53.7845 14.4201 53.6075 14.5922 53.4744C14.753 53.3723 14.9414 53.3213 15.1323 53.3281C15.2122 53.328 15.2919 53.3368 15.3699 53.3545C15.4399 53.3709 15.5085 53.3929 15.575 53.4203C15.634 53.4452 15.6842 53.4671 15.7226 53.4891C15.7474 53.5003 15.7707 53.5145 15.7919 53.5315C15.8923 53.7027 16.0207 53.9587 16.18 54.2982C16.3394 54.6377 16.5091 55.0166 16.6921 55.438C16.8751 55.8594 17.0625 56.3013 17.2558 56.7549C17.4491 57.2084 17.6262 57.6488 17.7915 58.0585C17.9568 58.4682 18.0999 58.8311 18.2254 59.1486C18.3508 59.4661 18.4364 59.6914 18.4851 59.8275H17.2558C17.2248 59.7529 17.1835 59.649 17.1348 59.5129L16.971 59.074C16.912 58.9174 16.8515 58.7594 16.7895 58.5984C16.7275 58.4375 16.6714 58.297 16.6227 58.1741H13.5016C13.3659 58.5121 13.2419 58.8252 13.1342 59.1105C13.0265 59.3959 12.9365 59.6358 12.8686 59.8275L11.75 59.8348ZM16.2509 57.2099C16.1633 56.9816 16.0649 56.7305 15.9557 56.4564C15.8436 56.1828 15.7344 55.915 15.6252 55.6531C15.516 55.3912 15.4142 55.1527 15.3168 54.9361C15.2194 54.7196 15.1456 54.5572 15.0895 54.4474C15.0083 54.6201 14.9183 54.8147 14.8194 55.0327C14.7206 55.2507 14.6173 55.4819 14.511 55.7248C14.4048 55.9677 14.3 56.2164 14.1952 56.4695C14.0905 56.7227 13.9901 56.967 13.9001 57.2084L16.2509 57.2099Z" fill="currentColor"/>
        <path d="M23.0438 54.503H21.18C20.814 54.503 20.631 54.3372 20.631 54.0055C20.629 53.8966 20.6481 53.7884 20.6871 53.6866C20.71 53.621 20.7381 53.5574 20.7712 53.4963H26.0911C26.4571 53.4963 26.6415 53.6631 26.6415 53.9953C26.6427 54.1037 26.6252 54.2116 26.5899 54.3142C26.5701 54.3812 26.5402 54.4448 26.5013 54.503H24.1535V59.8348H23.0438V54.503Z" fill="currentColor"/>
        <path d="M30.1621 54.1255C30.1621 53.7051 30.3889 53.4954 30.8424 53.4963H34.421C34.7928 53.4963 34.9803 53.6631 34.9803 53.9953C34.9817 54.1041 34.9627 54.2123 34.9242 54.3142C34.9014 54.3793 34.8732 54.4425 34.8401 54.503H31.2851V56.0935H34.2867C34.6527 56.0935 34.8356 56.2588 34.8356 56.5924C34.8368 56.7004 34.8194 56.8078 34.784 56.9099C34.7641 56.9773 34.7343 57.0414 34.6955 57.1001H31.2851V58.8281H34.9198V59.8348H30.1621V54.1255Z" fill="currentColor"/>
        <path d="M38.9024 54.0977C38.8947 54.0204 38.904 53.9424 38.9294 53.8689C38.9549 53.7954 38.996 53.7283 39.05 53.6719C39.1536 53.5832 39.2787 53.5227 39.413 53.4964C39.5059 53.4788 39.6801 53.4583 39.9354 53.4364C40.1907 53.4144 40.5596 53.4042 41.0436 53.4042C42.0196 53.4042 42.7495 53.589 43.2336 53.9587C43.6122 54.2678 43.8629 54.7043 43.9377 55.1849C44.0125 55.6655 43.9064 56.1567 43.6394 56.5646C43.4114 56.8646 43.1053 57.0973 42.754 57.2377C42.8838 57.4176 43.0166 57.6137 43.1494 57.8303C43.2823 58.0468 43.4151 58.2692 43.5464 58.5004C43.6777 58.7316 43.8032 58.9598 43.9242 59.1881C44.0452 59.4163 44.1588 59.627 44.2636 59.8348H42.9783C42.9281 59.7294 42.8469 59.5714 42.7362 59.3593C42.6256 59.1471 42.5031 58.9203 42.3717 58.6847C42.2404 58.4492 42.112 58.2195 41.9807 58C41.8494 57.7805 41.7416 57.6137 41.6546 57.4966C41.5483 57.5098 41.4391 57.5186 41.324 57.5244C41.2089 57.5303 41.1012 57.5347 41.0023 57.5347C40.7854 57.5347 40.5803 57.5259 40.3869 57.5113C40.1936 57.4967 40.0579 57.482 39.9767 57.4688V59.8348H38.8965L38.9024 54.0977ZM39.9826 56.5266C40.0638 56.5397 40.1848 56.5544 40.3471 56.5734C40.5791 56.5953 40.8121 56.6046 41.0451 56.6012C41.3288 56.6066 41.6122 56.5786 41.8892 56.5178C42.085 56.475 42.2711 56.3966 42.4382 56.2866C42.5681 56.1977 42.6703 56.0746 42.7333 55.9311C42.7923 55.786 42.8218 55.6309 42.8204 55.4746C42.8226 55.3242 42.7945 55.175 42.7377 55.0356C42.6737 54.8916 42.5717 54.7672 42.4426 54.6757C42.2761 54.5567 42.0875 54.4717 41.8877 54.4255C41.5977 54.3575 41.3002 54.3265 41.0023 54.3333C40.6924 54.3333 40.4548 54.3333 40.291 54.3508C40.1826 54.3563 40.0746 54.369 39.9678 54.3889L39.9826 56.5266Z" fill="currentColor"/>
        <path d="M52.2 57.2845H51.1095C50.7425 57.2845 50.5591 57.1245 50.5591 56.8046C50.5587 56.6933 50.5782 56.5828 50.6166 56.4783C50.6376 56.4127 50.6673 56.3502 50.7052 56.2924H52.6339C53.0766 56.2924 53.295 56.5031 53.295 56.9216V59.8435C53.2059 59.8629 53.1157 59.877 53.0249 59.886C52.8951 59.9006 52.7372 59.9182 52.5542 59.9357C52.3712 59.9533 52.1676 59.9694 51.9447 59.9825C51.7219 59.9957 51.4873 60.0001 51.2453 60.0001C50.7404 60.0055 50.2377 59.9339 49.7548 59.7879C49.3256 59.6602 48.9273 59.4466 48.5846 59.1602C48.2535 58.8764 47.9925 58.521 47.8217 58.1214C47.6293 57.6633 47.5353 57.1705 47.5457 56.6743C47.5379 56.1959 47.6303 55.7211 47.8172 55.2799C47.9879 54.8806 48.2418 54.5215 48.5624 54.2265C48.8877 53.9318 49.2697 53.7053 49.6855 53.5607C50.1358 53.4041 50.6102 53.3264 51.0874 53.331C51.3179 53.3292 51.5482 53.3443 51.7765 53.3764C51.959 53.4027 52.1394 53.4413 52.3166 53.492C52.452 53.532 52.5846 53.5809 52.7136 53.6383C52.8026 53.6771 52.888 53.7236 52.9689 53.7773C53.0674 53.8375 53.1519 53.9178 53.2168 54.0128C53.2666 54.0881 53.2937 54.1759 53.295 54.266C53.296 54.3445 53.2783 54.4222 53.2433 54.4928C53.2109 54.5622 53.1703 54.6275 53.1223 54.6874C53.0775 54.7403 53.0281 54.7892 52.9748 54.8337C52.9335 54.8704 52.8896 54.9042 52.8434 54.9346C52.7614 54.8562 52.6725 54.7852 52.5778 54.7225C52.4553 54.6419 52.3242 54.5752 52.1868 54.5235C52.0215 54.4621 51.8518 54.4132 51.6791 54.3772C51.4767 54.3358 51.2704 54.3157 51.0638 54.3172C50.7396 54.3131 50.4175 54.3681 50.1134 54.4796C49.835 54.5821 49.5812 54.7411 49.3682 54.9463C49.1526 55.1557 48.9858 55.4095 48.8797 55.6896C48.7607 56.0038 48.7022 56.3373 48.7071 56.6729C48.6985 57.0327 48.7617 57.3907 48.893 57.7263C49.0061 58.0102 49.1887 58.2616 49.4243 58.4579C49.6646 58.6507 49.9416 58.7935 50.2388 58.8779C50.58 58.974 50.9334 59.0208 51.2881 59.0169C51.5168 59.0169 51.716 59.0169 51.8783 58.9978C51.9848 58.9934 52.0909 58.9811 52.1956 58.9613L52.2 57.2845Z" fill="currentColor"/>
        <path d="M57.2579 54.0056C57.2512 53.9345 57.261 53.8629 57.2866 53.7961C57.3122 53.7294 57.3528 53.6694 57.4055 53.6207C57.5279 53.5319 57.6776 53.488 57.829 53.4964C57.9424 53.4951 58.0554 53.5109 58.164 53.5432C58.2315 53.5616 58.2972 53.5861 58.3603 53.6164V56.8968C58.3558 57.2056 58.387 57.5139 58.4532 57.8157C58.5044 58.0542 58.6082 58.2786 58.7572 58.4726C58.9026 58.6515 59.0937 58.7885 59.3106 58.8691C59.8613 59.0486 60.4555 59.0486 61.0062 58.8691C61.2235 58.7884 61.4151 58.6515 61.561 58.4726C61.7096 58.2785 61.8129 58.0541 61.8636 57.8157C61.9298 57.5139 61.961 57.2056 61.9565 56.8968V54.0056C61.9509 53.9339 61.9619 53.862 61.9887 53.7952C62.0156 53.7285 62.0576 53.6688 62.1115 53.6207C62.2339 53.5319 62.3836 53.488 62.535 53.4964C62.6484 53.4951 62.7614 53.5109 62.87 53.5432C62.9375 53.5616 63.0032 53.5861 63.0663 53.6164V56.989C63.0663 57.9644 62.8238 58.7097 62.3387 59.2247C61.8537 59.7397 61.1272 59.9982 60.1591 60.0002C59.1891 60.0002 58.4621 59.7417 57.9781 59.2247C57.494 58.7077 57.254 57.9625 57.2579 56.989V54.0056Z" fill="currentColor"/>
        <path d="M67.1548 54.0977C67.1469 54.0204 67.156 53.9423 67.1814 53.8688C67.2069 53.7952 67.2482 53.7281 67.3024 53.6719C67.4061 53.5832 67.5311 53.5227 67.6654 53.4964C67.7584 53.4788 67.9325 53.4583 68.1878 53.4364C68.4431 53.4144 68.812 53.4042 69.2961 53.4042C70.272 53.4042 71.002 53.589 71.486 53.9587C71.865 54.2676 72.1158 54.7043 72.1904 55.1851C72.265 55.6658 72.1581 56.157 71.8904 56.5646C71.6626 56.8648 71.3564 57.0975 71.0049 57.2377C71.1348 57.4176 71.2676 57.6137 71.4004 57.8303C71.5332 58.0468 71.6661 58.2692 71.7974 58.5004C71.9287 58.7316 72.0527 58.9598 72.1737 59.1881C72.2947 59.4163 72.4083 59.627 72.5146 59.8348H71.2278C71.1791 59.7294 71.0979 59.5714 70.9858 59.3593C70.8736 59.1471 70.7526 58.9203 70.6227 58.6847C70.4929 58.4492 70.3615 58.2195 70.2317 58C70.1018 57.7805 69.9926 57.6137 69.9055 57.4966C69.7993 57.5098 69.6886 57.5186 69.575 57.5244C69.4614 57.5303 69.3522 57.5347 69.2533 57.5347C69.0349 57.5347 68.8312 57.5259 68.6379 57.5113C68.4446 57.4967 68.3088 57.482 68.2277 57.4688V59.8348H67.1475L67.1548 54.0977ZM68.2351 56.5266C68.3162 56.5397 68.4372 56.5544 68.5981 56.5734C68.8306 56.5952 69.0641 56.6045 69.2976 56.6012C69.5808 56.6066 69.8636 56.5786 70.1402 56.5178C70.3365 56.4752 70.5232 56.3968 70.6906 56.2866C70.821 56.1983 70.9234 56.0749 70.9858 55.9311C71.0458 55.7863 71.0759 55.6311 71.0743 55.4746C71.0761 55.3241 71.0475 55.1749 70.9902 55.0356C70.9282 54.8924 70.8289 54.7682 70.7024 54.6757C70.536 54.5567 70.3474 54.4717 70.1476 54.4255C69.8576 54.3575 69.56 54.3265 69.2621 54.3333C68.9522 54.3333 68.7147 54.3391 68.5494 54.3508C68.4414 54.3564 68.3339 54.3691 68.2277 54.3889L68.2351 56.5266Z" fill="currentColor"/>
        <path d="M76.1464 54.0056C76.14 53.9346 76.15 53.8631 76.1756 53.7964C76.2011 53.7297 76.2416 53.6697 76.294 53.6208C76.417 53.5322 76.5671 53.4883 76.719 53.4964C76.8324 53.4951 76.9453 53.5109 77.054 53.5433C77.1214 53.562 77.1871 53.5864 77.2502 53.6164V56.8968C77.2458 57.2056 77.277 57.5139 77.3432 57.8157C77.3939 58.0542 77.4972 58.2785 77.6457 58.4727C77.7917 58.6516 77.9832 58.7885 78.2006 58.8692C78.7513 59.0487 79.3454 59.0487 79.8961 58.8692C80.1135 58.7885 80.3051 58.6516 80.451 58.4727C80.5963 58.2775 80.697 58.0534 80.7461 57.8157C80.8123 57.5139 80.8435 57.2056 80.8391 56.8968V54.0056C80.8327 53.9346 80.8427 53.8631 80.8683 53.7964C80.8938 53.7297 80.9343 53.6697 80.9867 53.6208C81.1092 53.5322 81.2588 53.4883 81.4102 53.4964C81.5241 53.4952 81.6375 53.5109 81.7467 53.5433C81.8137 53.5619 81.8789 53.5864 81.9415 53.6164V56.989C81.9415 57.9645 81.6994 58.7097 81.2154 59.2247C80.7314 59.7398 80.0044 59.9983 79.0343 60.0002C78.0663 60.0002 77.3397 59.7417 76.8547 59.2247C76.3697 58.7078 76.1336 57.9625 76.1464 56.989V54.0056Z" fill="currentColor"/>
    </g>
    <defs>
        <clipPath id="clip0_850_788">
            <rect width="82" height="60" fill="currentColor"/>
        </clipPath>
    </defs>
</svg>