<svg xmlns="http://www.w3.org/2000/svg" width="15" height="20" viewBox="0 0 15 20">
    <g fill="#08A381" fill-rule="evenodd">
        <path d="M.402 8.817c.536.541 1.4.541 1.936 0l4.88-4.92 4.881 4.92c.536.541 1.399.541 1.935 0 .536-.54.536-1.41 0-1.95L8.186.97C7.489.268 6.873.343 6.25.971L.402 6.866a1.383 1.383 0 0 0 0 1.951"/>
        <path d="M5.552 18.688V4.465c0-.674.744-1.217 1.666-1.217.923 0 1.666.543 1.666 1.217v14.223c0 .675-.743 1.217-1.666 1.217-.922 0-1.666-.542-1.666-1.217"/>
    </g>
</svg>
